<svg style="display:block" width="981.285" height="188.674" xmlns="http://www.w3.org/2000/svg">
  <defs>
    <clipPath clipPathUnits="userSpaceOnUse" id="a">
      <path style="fill:#fff;fill-opacity:1;fill-rule:nonzero" class="powerclip" d="M44.21 440.492h716.102v198.674H44.21Zm657.074 87.131c-4.515.045-9.059 1.215-13.284 3.377-5.64 3.968-11.072 8.767-12.595 15.725-.172 1.013-.34 1.995-.506 2.978-.304 1.765-.605 3.53-.899 5.297 5.047.041 10.093.076 15.14.098l6.173.027c3.036.025 6.073.05 9.11.06l2.878.01 2.803.032h2.607c3.525.02 4.176-.151 7.29-2.227 1.438-3.667 2.007-6.558 1.937-10.5-1.172-4.376-2.667-7.346-5.938-10.5-4.523-3.033-9.6-4.428-14.716-4.377z"/>
    </clipPath>
  </defs>
  <path d="M0 0h1080v1080H0V0Z" style="fill:none" transform="translate(-49.21 -445.492)"/>
  <g style="display:inline">
    <path d="M0 0c2.353 2.916 3.003 4.474 2.983 8.25L2.414 12l-.307 2.099A422.71 422.71 0 0 1 1 21l-.393 2.402c-1.024 6.21-2.123 12.406-3.232 18.602l-1.053 5.934c-.73 4.113-1.464 8.225-2.199 12.337-.94 5.257-1.873 10.516-2.804 15.775-.721 4.072-1.446 8.142-2.172 12.212-.346 1.94-.69 3.88-1.034 5.82-.48 2.705-.963 5.41-1.449 8.116l-.422 2.397c-2.254 12.463-2.254 12.463-5.3 15.366l-2.38 1.414-2.37 1.46c-5.985 3.18-12.589 2.72-19.192 2.165-4.101-1.44-6.726-4.36-9-8-.132-2.232-.132-2.232.21-4.635l.361-2.672L-51 107l.37-2.42c.398-2.478.83-4.947 1.272-7.417l.493-2.807c.534-3.03 1.072-6.058 1.611-9.086l1.125-6.364c.783-4.431 1.57-8.861 2.358-13.291 1.008-5.669 2.01-11.338 3.009-17.008.772-4.375 1.548-8.749 2.324-13.123l1.109-6.27c.515-2.923 1.036-5.844 1.557-8.766l.455-2.596c2.3-12.787 2.3-12.787 6.005-16.665C-20.51-4.625-9.291-4.81 0 0Z" transform="translate(877.79 60.508)" style="fill:#4eff7b"/>
    <path d="M106.566 445.514a1518.317 1518.317 0 0 1 16 .014c4.08.018 8.161.015 12.242.014 6.844.002 13.688.02 20.532.046 7.91.032 15.821.042 23.732.04 8.435 0 16.87.013 25.305.032 2.427.004 4.855.006 7.282.006 3.81.002 7.62.014 11.43.034 1.399.006 2.797.008 4.195.007 1.907 0 3.814.012 5.722.025l3.234.01c2.788.26 4.42.753 6.76 2.257 3.25 4.69 2.552 10.564 2 16-1.574 5.759-3.852 9.749-9 13-2.476 1.239-4.139 1.139-6.91 1.159l-3.145.03c-1.143.005-2.285.01-3.463.017l-3.636.03c-3.296.026-6.59.048-9.886.068-3.442.021-6.884.049-10.326.076-6.52.05-13.04.095-19.56.138-7.422.05-14.844.104-22.266.16-15.27.114-30.539.22-45.808.323a5775.59 5775.59 0 0 0-2.563 13.824c-.29 1.567-.58 3.134-.874 4.7-.42 2.255-.836 4.512-1.25 6.769l-.398 2.11c-.65 3.567-1.167 6.968-.915 10.597 1.946 1.946 4.9 1.124 7.49 1.132l2.832-.006 2.966.006c2.133.004 4.267.006 6.4.007 4.53.003 9.058.025 13.587.046 8.442.038 16.884.069 25.326.067 5.863-.001 11.725.022 17.588.062 2.238.01 4.476.012 6.714.004 3.13-.01 6.258.011 9.387.04l2.814-.032c6.28.102 6.28.102 9.47 3.066 5.216 9.548-.185 24.991-2.074 35.171-4.486 17.87-4.486 17.87-1.875 35.313 2.94 3.87 5.968 6.921 10.375 9.125 9.706.91 15.39-.746 23.188-6.25 6.277-6.138 8.64-12.415 10.125-20.938l.587-3.108c1.25-6.703 2.4-13.424 3.563-20.143.528-3.051 1.06-6.102 1.592-9.152.711-4.076 1.406-8.154 2.09-12.234l.988-5.722.435-2.664c.936-5.337 1.94-9.763 6.334-13.336l2.036-1.203 2.027-1.234c3.53-1.762 6.797-2.146 10.712-2.221l2.79-.06c.985-.018 1.97-.034 2.986-.051l3.077-.063c3.24-.066 6.48-.125 9.72-.184l6.594-.13c5.385-.108 10.77-.21 16.156-.308l.443-2.192.595-2.941.624-3.086c.445-2.2.892-4.398 1.339-6.597 1.11-5.51 2.16-11.016 3.046-16.567l.491-3c.302-1.87.587-3.745.854-5.621.9-5.505 2.026-8.42 6.608-11.996 6.464-3.77 12.887-5.099 20.309-3.504 5.077 1.476 7.833 2.81 10.691 7.504.129 3.004.129 3.004-.437 6.563-.1.66-.199 1.319-.3 1.999A353.96 353.96 0 0 1 364 470l-.603 3.42c-.891 5.03-1.786 10.06-2.719 15.082l-.655 3.545-.596 3.182c-.529 2.963-.529 2.963-.427 6.771l2.87.011c8.945.037 17.89.095 26.834.173 4.598.04 9.196.072 13.795.087 4.441.015 8.882.05 13.324.097 1.69.015 3.38.023 5.071.024 16.7.017 16.7.017 23.106 4.608 2.025 2.176 2.956 3.333 3.155 6.33l-.325 2.589-.361 2.95a517.62 517.62 0 0 1-2.754 16.428l-1.358 7.59c-.592 3.284-1.185 6.567-1.78 9.85-.815 4.498-1.62 8.998-2.425 13.497l-.653 3.565c-1.685 9.456-2.708 16.695 2.501 25.201 3.22 3.547 6.508 5.71 11.348 6.274 8.498.317 14.563-1.616 20.949-7.329 7.599-8.015 9.221-16.608 10.966-27.244.337-2.058.686-4.114 1.036-6.17.868-5.102 1.72-10.207 2.57-15.312.722-4.328 1.45-8.654 2.19-12.979.34-2.014.67-4.03 1-6.047 2.557-15.01 2.557-15.01 6.843-18.935l2.036-1.133 2.027-1.18c4.261-1.979 8.126-2.08 12.804-2.106l2.036-.015c2.218-.015 4.435-.021 6.652-.027l4.64-.017c3.243-.01 6.485-.017 9.727-.02 4.143-.005 8.285-.03 12.428-.058 3.195-.019 6.391-.024 9.587-.025 1.526-.003 3.053-.011 4.58-.025a587.97 587.97 0 0 1 6.424-.009l3.685-.01c4.167.44 6.765 1.424 10.472 3.367 2.351 3.527 2.214 5.029 2.125 9.187l-.055 3.293L586 521l1.04-1.434c3.654-4.619 7.752-8.13 12.648-11.379l3.324-2.207c11.268-6.126 23.939-5.409 36.355-5.344 1.967.001 3.934 0 5.902-.002 4.106 0 8.213.01 12.32.03 5.226.022 10.453.022 15.68.016 4.057-.003 8.115.003 12.174.013 1.925.004 3.85.005 5.776.003 18.64-.003 36.558.29 51.52 12.986 8.038 8.234 12.08 17.815 12.574 29.192-.125 9.065-1.752 19.73-7.563 26.937-8.658 8.4-21.129 7.332-32.34 7.285l-3.938-.004c-3.434-.004-6.869-.013-10.303-.024-3.513-.01-7.025-.015-10.538-.02-6.877-.01-13.754-.028-20.631-.049a698.164 698.164 0 0 0-.074 5.258l-.042 2.958c.215 5.166 2.025 8.404 5.241 12.472 8.4 6.756 17.077 7.502 27.574 6.648 6.195-.903 11.705-3.64 17.301-6.336 4.831-2.218 8.57-3.79 14-3 3.608 2.314 5.554 4.047 7.375 7.938.97 4.756 1.355 7.66-.937 12.062-9.614 11.832-24.04 16.67-38.813 18.688-19.392 1.633-38.346-.514-54.144-12.547-3.503-3.023-6.087-6.197-8.48-10.14l-1.177-1.895c-7.95-14.194-4.24-30.642-1.574-45.793l.582-3.418c1.272-6.85 3.176-12.91 6.073-19.25 1.06-2.56 1.652-4.917 2.095-7.645-4.766-.005-9.53.03-14.294.098a367.62 367.62 0 0 1-4.847.022c-12.816-.016-23.5 1.934-33.273 11.064-9.077 10.396-12.842 22.284-14.988 35.648l-1.26 7.354a2822.25 2822.25 0 0 0-1.908 11.488c-.614 3.722-1.253 7.44-1.895 11.158l-.546 3.473c-1.081 6.178-1.866 9.881-6.989 13.695l-1.746 1.364c-6.367 3.573-13.133 3.48-20.254 2.636-3.56-1.142-6.138-2.627-8.183-5.884-2.96-7.664 1.481-19.957 2.912-27.897.474-2.635.943-5.27 1.41-7.906 1.33-7.487 2.667-14.972 4.01-22.456.824-4.595 1.642-9.19 2.454-13.787.31-1.748.624-3.496.94-5.243.44-2.432.872-4.866 1.301-7.301l.403-2.187c.565-3.256.817-5.148-.247-8.339h-21c-1.81 7.435-3.38 14.842-4.684 22.38l-.434 2.501c-.59 3.42-1.178 6.842-1.754 10.265-3.893 23.038-10.65 41.415-30.44 55.667-16.195 10.588-33.399 15.596-52.625 12.062-13.645-3.247-24.365-9.923-32.012-21.937-7.334-13.922-6.922-27.072-4.082-42.266l.536-3.001c.654-3.643 1.325-7.281 1.995-10.92L408 530h-54c-1.859 8.054-3.635 15.995-5.043 24.12l-.525 2.995c-.36 2.063-.72 4.126-1.076 6.189-.547 3.151-1.102 6.301-1.659 9.451l-1.052 6.053-.502 2.831c-1.722 8.039-1.722 8.039.17 15.673 2.808 2.808 5.59 2.812 9.363 2.863l2.76.072c1.906.043 3.812.074 5.718.094 5.724.173 9.406.67 13.846 4.658 2.757 4.02 2.524 8.297 2 13-1.91 5.226-5.04 9.12-9.766 12.122-5.023 1.975-10.912 1.204-16.234 1.19l-3.832.05c-12.6.006-25.2-1.815-34.918-10.424-6.603-7.148-7.721-15.57-7.622-24.98.635-11.472 3.323-22.876 5.435-34.145.73-3.923 1.455-7.846 2.17-11.772.444-2.429.895-4.856 1.356-7.282l.607-3.31.545-2.905c.432-2.814.432-2.814-.74-6.544h-20c-1.461 3.651-2.35 6.225-2.975 9.967l-.496 2.915-.518 3.122c-.38 2.208-.761 4.416-1.143 6.623a2641.62 2641.62 0 0 0-1.756 10.38c-4.068 24.265-10.395 43.04-31.25 58.286-16.213 10.424-33.782 15.095-52.863 11.582-12.96-3.056-24.214-10.479-31.437-21.812-9.12-16.92-5.69-34.495-2.254-52.576l.695-3.678.65-3.319L172 549c-1.101-1.326-1.101-1.326-3.854-1.12l-3.869.007h-2.128c-2.332 0-4.664.008-6.997.016l-4.838.004c-4.253.004-8.506.014-12.76.025-4.336.01-8.672.014-13.009.02-8.515.01-17.03.027-25.545.048-1.21 6.557-2.418 13.114-3.625 19.672l-1.228 6.658-1.788 9.705-.6 3.249a856.468 856.468 0 0 0-2.843 16.259l-.525 3.164c-.324 1.967-.64 3.937-.947 5.907-1.859 11.241-1.859 11.241-6.163 14.812-7.973 3.97-16.117 5.177-24.91 2.89-3.518-1.56-4.954-2.34-6.513-5.99-.979-3.794-.732-6.16-.038-10.002l.341-1.959c.379-2.157.779-4.31 1.179-6.463a2510.37 2510.37 0 0 1 3.116-17.322c.807-4.43 1.6-8.863 2.393-13.296 1-5.585 2.002-11.169 3.01-16.752a4422.444 4422.444 0 0 0 6.766-38.554c1.005-5.86 2.018-11.718 3.03-17.576.817-4.726 1.629-9.453 2.43-14.182.755-4.457 1.525-8.912 2.304-13.366.284-1.637.563-3.275.836-4.913a695.02 695.02 0 0 1 1.166-6.727l.653-3.804c1.312-4.68 2.687-7.98 6.93-10.654 7.32-3.406 14.663-3.311 22.592-3.242z" style="fill:#4eff7b" clip-path="url(#a)" transform="translate(-49.21 -445.492)"/>
    <path d="m818.032 445.741 3.944-.01c3.554-.01 7.107-.006 10.66 0 3.725.005 7.45 0 11.174-.003 6.25-.004 12.5.001 18.75.011 7.223.011 14.447.007 21.67-.004 6.21-.009 12.419-.01 18.628-.005 3.706.003 7.411.004 11.117-.003 4.127-.007 8.254.003 12.381.014l3.72-.012 3.403.017 2.956.002c2.683.263 4.297.819 6.565 2.251 3.258 4.665 2.456 10.579 2 16-1.235 5.257-4.345 9.163-8 13-2.83.944-4.603 1.135-7.537 1.159l-2.817.03c-1.018.005-2.036.01-3.084.017l-3.253.03c-3.555.031-7.11.056-10.664.08l-7.386.064c-6.486.055-12.971.104-19.457.153-6.616.05-13.231.106-19.847.16-12.985.109-25.97.21-38.955.308l-.957 3.765-.539 2.118c-.763 3.202-1.278 6.43-1.793 9.68l-.328 2.05c-.34 2.129-.674 4.258-1.008 6.387l-.695 4.371c-.564 3.542-1.123 7.086-1.68 10.629l1.947.011c6.684.042 13.367.111 20.05.196 2.495.029 4.99.05 7.484.064 3.585.021 7.169.068 10.753.12 1.117 0 2.234.003 3.385.004l3.153.06 2.773.026c3.207.678 4.412 2.01 6.455 4.52 1.722 5.533 1.35 10.97-.977 16.241-2.268 3.897-4.765 6.339-9.023 7.758a97.636 97.636 0 0 1-5.022.206l-3.094.06-3.333.05-3.418.064c-3.607.065-7.213.124-10.82.183l-7.33.13c-5.995.108-11.989.21-17.983.307-2.124 8.787-3.882 17.578-5.375 26.492l-1.297 7.57c-.668 3.924-1.334 7.847-1.994 11.771-.645 3.825-1.301 7.649-1.959 11.472l-.587 3.545c-2.394 13.82-2.394 13.82-7.163 18.463-5.063 3.255-9.034 3.982-15.062 4l-3.872.05c-4.734-.465-8.065-1.642-11.37-5.14-1.679-2.825-1.533-4.272-1.168-7.517l.363-3.233c.875-6.281 1.92-12.526 3.028-18.769l.784-4.493c.704-4.032 1.414-8.062 2.127-12.092.596-3.375 1.188-6.75 1.781-10.125 1.398-7.962 2.803-15.923 4.21-23.883 1.45-8.198 2.89-16.397 4.324-24.598 1.235-7.06 2.477-14.121 3.725-21.18.743-4.208 1.484-8.415 2.218-12.624.69-3.954 1.388-7.906 2.093-11.857.257-1.446.51-2.893.76-4.34 2.937-16.945 2.937-16.945 7.684-21.824 7.188-4.411 14.586-3.974 22.782-3.946zM998.5 450.688c3.33 5.133 1.288 12.577.188 18.285l-.404 2.202c-.421 2.297-.852 4.592-1.284 6.888-.432 2.298-.862 4.597-1.284 6.898a509.587 509.587 0 0 1-.801 4.267c-.791 4.31-1.034 8.396-.915 12.772l2.874.028c3.527.044 7.052.106 10.578.18 1.525.028 3.05.049 4.574.063 2.196.021 4.389.068 6.583.12l4 .063c3.875.624 5.094 1.418 7.391 4.546.937 5.297.554 10.45-1.25 15.5-1.828 2.612-3.241 4.516-5.75 6.5-2.737.418-5.09.605-7.828.61l-2.27.05c-2.384.048-4.767.07-7.152.09-1.62.028-3.24.058-4.86.09-3.963.074-7.926.123-11.89.16-1.436 3.354-2.408 6.502-3.053 10.09l-.546 2.996-.565 3.207-.597 3.337c-.414 2.329-.826 4.658-1.235 6.987-.624 3.542-1.263 7.08-1.902 10.62l-1.204 6.806-.577 3.176c-1.722 9.355-1.722 9.355-1.321 18.781 1.914 2.465 2.965 2.988 6 4 1.483.112 2.97.178 4.457.21.866.03 1.731.058 2.623.087 1.81.052 3.62.096 5.43.133 5.174.184 9.07.58 13.49 3.57 2.424 3.124 3.033 6.599 2.941 10.5-.906 6.131-3.18 10.49-7.941 14.5-4.995 3.147-10.754 2.334-16.46 2.316-2.006-.003-4.011.02-6.017.045-12.278.006-23.647-1.54-33.523-9.361-7.136-7.418-8.441-15.053-8.43-25.079.258-12.565 2.75-24.902 4.976-37.237.646-3.6 1.274-7.204 1.905-10.807 1.059-6.029 2.13-12.055 3.21-18.08a4901.32 4901.32 0 0 0 3.692-20.87 7799.07 7799.07 0 0 1 3.562-20.196c.506-2.85 1.009-5.701 1.508-8.553.696-3.97 1.41-7.936 2.125-11.902l.62-3.563.598-3.273.506-2.835c1.2-4.296 2.965-6.984 6.416-9.793 9.557-5.23 19.685-5.285 28.812.875z" style="fill:#4eff7b" transform="translate(-49.21 -445.492)"/>
  </g>
</svg>
